<svg xmlns="http://www.w3.org/2000/svg" width="1280" height="650" viewBox="0 0 1280 650">
  <path id="Subtraction_4" data-name="Subtraction 4" d="M1505,650h0c-64.221-14.193-156.155-26.09-265.863-34.405-55.562-4.211-115.138-7.464-177.071-9.669C998.184,603.652,931.882,602.5,865,602.5s-133.184,1.153-197.064,3.426c-61.934,2.2-121.51,5.457-177.071,9.669C381.159,623.91,289.225,635.807,225,650V499.534a220.105,220.105,0,0,0,87.5-18.055,224.013,224.013,0,0,0,38.216-21.173,228.237,228.237,0,0,0,33.312-28.031,230.549,230.549,0,0,0,61.4-115.949A234.523,234.523,0,0,0,450,270.156C450,143.676,349.065,40.778,225,40.778V0H1505V650Z" transform="translate(-225 0)" fill="#fff"/>
</svg>
