<svg xmlns="http://www.w3.org/2000/svg" width="1280" height="641" viewBox="0 0 1280 641">
  <path id="Subtraction_4" data-name="Subtraction 4" d="M1505,650h0c-64.221-14.193-156.155-26.09-265.863-34.405-55.562-4.211-115.137-7.464-177.071-9.669C998.185,603.652,931.883,602.5,865,602.5s-133.185,1.153-197.064,3.426c-61.935,2.2-121.51,5.457-177.071,9.669C381.159,623.91,289.225,635.807,225,650V502.546a222.362,222.362,0,0,0,62.557-32.289,229.658,229.658,0,0,0,81.8-113.063,234.813,234.813,0,0,0,0-146.075,229.658,229.658,0,0,0-81.8-113.063A222.364,222.364,0,0,0,225,65.766V9H1505V650Z" transform="translate(-225 -9)" fill="#fff"/>
</svg>
